<svg height="105.22865mm" viewBox="0 0 295.71289 372.85743" width="83.456749mm" xmlns="http://www.w3.org/2000/svg"><g transform="translate(-16.42913 -7.36133)"><path d="m255.71484 9.5v49.642578h52.89454l-52.79688-49.642578z" fill="#fff" transform="matrix(.93749997 0 0 .93749997 16.42913 7.36133)"/><g stroke="#000"><g fill="#fff" stroke-width="10" transform="translate(-164.28571 -340)"><path d="m417.14258 406.64844v-54.28711h-231.42774v362.85742h285.71289v-308.57031z" stroke-linecap="round" stroke-linejoin="round"/><path d="m417.14258 352.36133 54.28515 54.28711" fill-rule="evenodd"/></g><g fill="none"><path d="m49.28557 343.79078h230" stroke-width="3"/><path d="m49.28557 48.07649h198.92857" stroke-width="2.790011"/><g stroke-width="3"><path d="m49.28557 77.64789h230"/><path d="m49.28557 107.21937h230"/><path d="m49.28557 136.79078h230"/><path d="m49.28557 166.3622h230"/><path d="m49.28557 195.93361h230"/><path d="m49.28557 225.50508h230"/><path d="m49.28557 255.07649h230"/><path d="m49.28557 284.64793h230"/><path d="m49.28557 314.21935h230"/></g></g></g></g><g fill="#fff" stroke="#000"><g stroke-width="10" transform="translate(372.83345 -423.07617)"><path d="m88.205078 428.07617-.330078.68945 20.31641 1.57422-17.925785 9.69141 15.509765 13.2168-20.197265-2.69727 4.779297 19.8086-14.75586-14.05469-7.77539 18.83593-3.677734-20.04296-1.291016.79296v335.04297h170.976558l.33008-.6875-20.3164-1.57617 17.92578-9.6914-15.50977-13.21485 20.19727 2.69531-4.7793-19.80859 14.75586 14.05469 7.77734-18.83594 3.67578 20.04297 17.36329-10.66602-8.80664 18.375 20.3164 1.57618-17.92578 9.6914 9.44141 8.04492h70.29101v-173.80468l-2.99219-16.31641-17.36328 10.66602 8.80664-18.37696-20.3164-1.57422 17.92578-9.6914-15.50977-13.2168 20.19727 2.69727-4.7793-19.8086 14.03125 13.36524v-82.50977h-54.28515v-54.28711z" stroke-linecap="round" stroke-linejoin="round"/><path d="m294.28544 428.07562 54.28515 54.28711" fill-rule="evenodd"/><path d="m181.49037 644.67595-20.19808-2.69693 4.77942 19.80892-14.75538-14.05399-7.77675 18.83502-3.67663-20.04291-17.36247 10.66679 8.80648-18.37612-20.31633-1.57579 17.92581-9.69028-15.51002-13.21648 20.19808 2.69693-4.77942-19.80892 14.75538 14.054 7.77675-18.83503 3.67663 20.04292 17.36247-10.6668-8.80648 18.37613 20.31632 1.57578-17.9258 9.69028z" stroke-linecap="round" stroke-linejoin="round"/></g><g fill-rule="evenodd" transform="translate(-16.42913 -7.36133)"><path d="m479.97672 343.79023h230" stroke-width="3"/><path d="m479.97672 48.07594h198.92857" stroke-width="2.790011"/><g stroke-width="3"><path d="m479.97672 77.64734h230"/><path d="m479.97672 107.21882h230"/><path d="m479.97672 136.79023h230"/><path d="m479.97672 166.36165h230"/><path d="m479.97672 195.93306h230"/><path d="m479.97672 225.50453h37.5"/><path d="m479.97672 255.07594h230"/><path d="m479.97672 284.64738h230"/><path d="m479.97672 314.2188h230"/><path d="m562.83386 225.50453h147.14286"/></g></g></g></svg>