<svg height="317.05115mm" viewBox="0 0 1119.249 1123.4096" width="315.87695mm" xmlns="http://www.w3.org/2000/svg" xmlns:xlink="http://www.w3.org/1999/xlink"><filter id="a" color-interpolation-filters="sRGB" height="1.150593" width="1.38185" x="-.190925" y="-.075296"><feGaussianBlur stdDeviation="28.890892"/></filter><filter id="b" color-interpolation-filters="sRGB" height="1.08833" width="2.7136" x="-.8568" y="-.044165"><feGaussianBlur stdDeviation="10.818733"/></filter><g transform="translate(-91.716705 81.384033)"><rect fill="#fc0" height="1000" ry="9.091373" width="1000" x="91.716705" y="-81.384033"/><rect fill="#fff" height="920" ry="9.091373" width="920" x="131.71671" y="-41.384033"/><g fill="#fea"><rect height="32.324883" rx="10.714303" ry="9.285714" width="753.57379" x="214.92981" y="-10.403617"/><rect height="32.324883" rx="8.93097" ry="9.285714" width="415.00235" x="384.21555" y="35.310669"/></g><path d="m151.71671 118.61595h420v740h-420z" fill="#fff"/><rect fill="#217821" height="20" rx="5.149548" ry="5.745242" width="239.28807" x="151.71671" y="118.61595"/><rect fill="#afe9af" height="15" rx="7.57125" ry="4.308931" width="351.81915" x="208.78586" y="157.17885"/><path d="m611.71667 118.61595h420v740h-420z" fill="#fff"/><g fill="#afe9af"><rect height="15" rx="8.603746" ry="4.308931" width="399.79697" x="160.80807" y="183.12526"/><rect height="15" rx="8.603746" ry="4.308931" width="399.79697" x="160.80807" y="209.07167"/><rect height="15" rx="8.603746" ry="4.308931" width="399.79697" x="160.80807" y="235.01808"/><rect height="15" rx="8.603746" ry="4.308931" width="399.79697" x="160.80807" y="260.96451"/><rect height="15" rx="8.603746" ry="4.308931" width="399.79697" x="160.80807" y="286.91092"/><rect height="15" rx="8.603746" ry="4.308931" width="399.79697" x="160.80807" y="312.85733"/><rect height="15" rx="8.603746" ry="4.308931" width="399.79697" x="160.80807" y="338.80374"/><rect height="15" rx="8.603746" ry="4.308931" width="399.79697" x="160.80807" y="364.75015"/></g><g transform="matrix(.94893485 .31547212 -.31547212 .94893485 734.62271 578.70462)"><path d="m-372.38941 252.29576c.70151.1965 1.46886.23591 1.68732 2.13118v42.56099l-16.05659 27.81074-23.46048 40.63474c-2.39159 4.14402.59858 9.32319 5.38319 9.32407h46.92097 46.9212c4.78462-.001 7.77478-5.18005 5.3832-9.32407l-23.46049-40.63474-16.39385-28.39495v-41.97678c.21846-1.89527.98581-1.93468 1.68732-2.13118h-14.18158-.24864z" fill="#d5e5ff" fill-opacity=".878431"/><path d="m-385.35206 339.75628-11.88965 20.59309c-1.7982 3.11582.45024 7.01011 4.04772 7.01078h35.27899 35.27947c3.59748-.001 5.84591-3.89496 4.04771-7.01078l-11.88965-20.59309z" fill="#0f0"/><path d="m16.208198 677.61113c-85.2951 441.11907-288.648568 643.50967-333.730318 573.78617-67.92805-105.0577 87.93411-301.8078 267.039228-591.82534 57.31521-92.80817-11.58978-348.32623 33.43656-340.98851 36.64074 5.97117 70.25844 167.65525 33.25453 359.02768z" fill="#fff" fill-opacity=".878431" filter="url(#a)" transform="matrix(.12432095 0 0 .12432095 -359.9573 216.43748)"/></g><g fill-opacity=".878431" fill-rule="evenodd" transform="matrix(.12432801 -.07252596 .07252596 .12432801 329.73717 719.63379)"><path d="m259.88477 304.84961c6.39267 2.83776 12.95482 5.50615 12.85742 14.83398v586.20703c0 35.21296 27.4431 63.77816 62.19531 65.56836v.0781c.17917.001.35564.0137.53516.0137.49138 0 .9761-.0265 1.46484-.0371.48874.0106.97346.0371 1.46484.0371.17952 0 .35599-.0122.53516-.0137v-.0781c34.75221-1.7902 62.19531-30.3554 62.19531-65.56836v-586.20703c-.0974-9.32783 6.46475-11.99622 12.85742-14.83398h-75.05273-4z" fill="#d5e5ff"/><path d="m290.92383 699.34961v198.22266c0 25.13542 19.34304 45.57276 44.01367 47.33789v.125c.17897.002.3557.0137.53516.0137.4912 0 .97732-.0224 1.46484-.0371.48752.0147.97364.0371 1.46484.0371.17946 0 .35619-.0117.53516-.0137v-.125c24.67063-1.76513 44.01367-22.20247 44.01367-47.33789v-198.22266h-44.01367-4z" fill="#f00"/><path d="m300.0382 919.02173c-8.35944.24489-4.43561-130.89394-4.46081-293.06648-.0156-100.31133.91507-199.72947-3.47848-258.42937-2.70947-36.19974-13.19806-54.7008-10.00936-54.98098 3.03616-.26678 18.33309 18.6006 22.03105 50.5507 6.48352 56.01715 5.30035 157.25001 5.33258 261.08452.00014 163.06079-1.05555 294.59675-9.41498 294.84161z" fill="#fff" filter="url(#b)"/></g><rect fill="#217821" height="20" rx="5.149548" ry="5.745242" width="239.28807" x="151.71671" y="422.67188"/><g fill="#afe9af"><rect height="15" rx="7.57125" ry="4.308931" width="351.81915" x="208.78586" y="461.23477"/><rect height="15" opacity=".96" rx="8.603746" ry="4.308931" width="399.79697" x="160.80807" y="487.18118"/><rect height="15" rx="8.603746" ry="4.308931" width="399.79697" x="160.80807" y="513.12756"/><rect height="15" rx="8.603746" ry="4.308931" width="399.79697" x="160.80807" y="539.07397"/><rect height="15" rx="8.603746" ry="4.308931" width="399.79697" x="160.80807" y="565.02045"/><rect height="15" rx="8.603746" ry="4.308931" width="399.79697" x="160.80807" y="590.96686"/><rect height="15" rx="8.603746" ry="4.308931" width="399.79697" x="160.80807" y="616.91327"/><rect height="15" rx="8.603746" ry="4.308931" width="399.79697" x="160.80807" y="642.85968"/></g><rect fill="#217821" height="20" rx="5.149548" ry="5.745242" width="239.28807" x="611.71667" y="118.61595"/><g fill="none" transform="matrix(.24828393 0 0 .24828393 606.394203 111.69582)"><g stroke="#000"><path d="m127.27922 304.84932v416.18285" stroke-width="15"/><path d="m695.56617 713.53216h-575.78695" stroke-width="15"/><g stroke-width="5"><path d="m591.93494 304.84932v416.18285"/><path d="m499.80377 304.84932v416.18285"/><path d="m407.67264 304.84932v416.18285"/><path d="m315.5415 304.84932v416.18285"/><path d="m223.41035 304.84932v416.18285"/><path d="m695.56617 379.21315h-575.78695"/><path d="m695.56617 446.07693h-575.78695"/><path d="m695.56617 512.9407h-575.78695"/><path d="m695.56617 579.80452h-575.78695"/><path d="m695.56617 646.66836h-575.78695"/></g></g><path d="m127.27922 713.53216 96.13113-66.8638 92.13115-133.72766 92.13114 66.86382 92.13113-66.86382 92.13117-133.72755 103.06506 134.22048" stroke="#2aae7b" stroke-width="12"/></g><rect fill="#2ca02c" height="7.093826" rx="3.128178" ry="2.534781" stroke-width=".248284" width="105.52067" x="655.372935" y="162.648487"/><g fill="#b7c8b7" transform="matrix(.24828393 0 0 .24828393 601.99189 111.69582)"><rect height="18.571428" rx="5.491767" ry="6.635982" width="185.25" x="334.875" y="743.79077"/><rect height="18.571428" rx="5.491767" ry="6.635982" transform="rotate(90)" width="185.25" x="420.31573" y="-111.19641"/></g><g transform="translate(-3.715729 -15.934619)"><g fill="#c0f"><path d="m892.79205 211.34528h14.139945v95.30603h-14.139945z"/><path d="m865.83777 252.47734h14.139945v54.17395h-14.139945z"/><path d="m973.65485 293.60944h14.139945v13.041877h-14.139945z" fill-opacity=".941176"/><path d="m946.70056 267.52567h14.139945v39.125633h-14.139945z"/></g><path d="m855.34226 203.3195v103.3318" fill="none" stroke="#000" stroke-width="3.736823"/><rect fill="#2ca02c" height="7.093846" rx="3.149311" ry="2.534788" width="106.23354" x="872.83698" y="178.58292"/><rect fill="#f5ce2f" height="4.611" rx="1.372729" ry="1.647612" width="46.305325" x="902.80109" y="312.30191"/><rect fill="#f5ce2f" height="4.642138" rx="1.363521" ry="1.658738" transform="rotate(90)" width="45.994724" x="231.98804" y="-846.89014"/><g fill="#c0f"><path d="m919.74628 282.8248h14.139945v23.826508h-14.139945z"/><path d="m997.39199 304.78916h-143.92444" fill-rule="evenodd" stroke="#000" stroke-width="3.736823"/></g></g><g transform="translate(-217.25886 174.75639)"><g fill="#0fc"><path d="m892.79205 211.34528h14.139945v95.30603h-14.139945z"/><path d="m865.83777 252.47734h14.139945v54.17395h-14.139945z"/><path d="m973.65485 293.60944h14.139945v13.041877h-14.139945z" fill-opacity=".878431"/><path d="m946.70056 267.52567h14.139945v39.125633h-14.139945z"/></g><path d="m855.34226 203.3195v103.3318" fill="none" stroke="#000" stroke-width="3.736823"/><rect fill="#2ca02c" fill-opacity=".992157" height="7.093846" rx="3.149311" ry="2.534788" width="106.23354" x="872.83698" y="178.58292"/><rect fill="#b7c8b7" height="4.611" rx="1.372729" ry="1.647612" width="46.305325" x="902.80109" y="312.30191"/><rect fill="#b7c8b7" height="4.642138" rx="1.363521" ry="1.658738" transform="rotate(90)" width="45.994724" x="231.98804" y="-846.89014"/><g fill="#0fc"><path d="m919.74628 282.8248h14.139945v23.826508h-14.139945z"/><path d="m997.39199 304.78916h-143.92444" fill-rule="evenodd" stroke="#000" stroke-width="3.736823"/></g></g><g fill="none" transform="matrix(.24828393 0 0 .24828393 819.937333 302.38683)"><g stroke="#000"><path d="m127.27922 304.84932v416.18285" stroke-width="15"/><path d="m695.56617 713.53216h-575.78695" stroke-width="15"/><g stroke-width="5"><path d="m591.93494 304.84932v416.18285"/><path d="m499.80377 304.84932v416.18285"/><path d="m407.67264 304.84932v416.18285"/><path d="m315.5415 304.84932v416.18285"/><path d="m223.41035 304.84932v416.18285"/><path d="m695.56617 379.21315h-575.78695"/><path d="m695.56617 446.07693h-575.78695"/><path d="m695.56617 512.9407h-575.78695"/><path d="m695.56617 579.80452h-575.78695"/><path d="m695.56617 646.66836h-575.78695"/></g></g><path d="m127.27922 713.53216 96.13113-66.8638 92.13115-133.72766 92.13114 66.86382 92.13113-66.86382 92.13117-133.72755 103.06506 134.22048" stroke="#2a5dae" stroke-width="12"/></g><rect fill="#2ca02c" height="7.093826" opacity=".97" rx="3.128178" ry="2.534781" stroke-width=".248284" width="105.52067" x="868.916065" y="353.339497"/><g fill="#b7c8b7" transform="matrix(.24828393 0 0 .24828393 815.53502 302.38683)"><rect height="18.571428" rx="5.491767" ry="6.635982" width="185.25" x="334.875" y="743.79077"/><rect height="18.571428" opacity=".97" rx="5.491767" ry="6.635982" transform="rotate(90)" width="185.25" x="420.31573" y="-111.19641"/></g><rect fill="#217821" height="20" rx="5.149548" ry="5.745242" width="239.28807" x="611.71667" y="556.01202"/><g fill="#afe9af"><rect height="15" rx="7.57125" ry="4.308931" width="351.81915" x="669.79596" y="591.7475"/><rect height="15" rx="8.603746" ry="4.308931" width="399.79697" x="621.81818" y="617.69391"/><rect height="15" rx="8.603746" ry="4.308931" width="399.79697" x="621.81818" y="643.64032"/><rect height="15" rx="8.603746" ry="4.308931" width="399.79697" x="621.81818" y="669.58673"/><rect height="15" rx="8.603746" ry="4.308931" width="399.79697" x="621.81818" y="695.5332"/><rect height="15" rx="8.603746" ry="4.308931" width="399.79697" x="621.81818" y="721.47961"/><rect height="15" rx="8.603746" ry="4.308931" width="399.79697" x="621.81818" y="747.42603"/><rect height="15" rx="8.603746" ry="4.308931" width="399.79697" x="621.81818" y="773.37244"/></g><g fill="none" stroke="#000"><path d="m1124.0926-77.634035h86.8731" stroke-width="7.499997"/><path d="m1124.0926 914.86597h86.8731" stroke-width="7.499997"/><path d="m1167.5292 457.45752v453.12848" stroke-width="7.5"/><path d="m1167.5292-81.383783v453.128503" stroke-width="7.5"/></g><text font-family="sans-serif" letter-spacing="0" word-spacing="0" x="1120.4113" y="435.49463"><tspan font-size="55" x="1120.4113" y="435.49463">30"</tspan></text><path d="m1087.9667 955.15241v86.87309" fill="none" stroke="#000" stroke-width="7.499997"/><path d="m95.466704 955.15241v86.87309" fill="none" stroke="#000" stroke-width="7.499997"/><path d="m528.76798 998.58902h-429.021336" fill="none" stroke="#000" stroke-width="7.297767"/><path d="m1091.7166 998.58902h-433.03929" fill="none" stroke="#000" stroke-width="7.331861"/><text font-family="sans-serif" letter-spacing="0" word-spacing="0" x="549.3656" y="1019.4825"><tspan font-size="55" x="549.3656" y="1019.4825">40"</tspan></text></g></svg>